<svg width="16" height="16" viewBox="0 0 16 16" fill="none" xmlns="http://www.w3.org/2000/svg">
<path d="M12.5 1H3.5C2.121 1 1 2.122 1 3.5V12.5C1 13.879 2.121 15 3.5 15H12.5C13.879 15 15 13.879 15 12.5V3.5C15 2.122 13.879 1 12.5 1ZM14 12.5C14 13.327 13.327 14 12.5 14H3.5C2.673 14 2 13.327 2 12.5V3.5C2 2.673 2.673 2 3.5 2H12.5C13.327 2 14 2.673 14 3.5V12.5ZM6.854 8.854L3.854 11.854C3.756 11.952 3.628 12 3.5 12C3.372 12 3.244 11.951 3.146 11.854C2.951 11.659 2.951 11.342 3.146 11.147L5.792 8.501L3.146 5.855C2.951 5.66 2.951 5.343 3.146 5.148C3.341 4.953 3.658 4.953 3.853 5.148L6.853 8.148C7.048 8.343 7.048 8.66 6.853 8.855L6.854 8.854ZM13 11.5C13 11.776 12.776 12 12.5 12H7.5C7.224 12 7 11.776 7 11.5C7 11.224 7.224 11 7.5 11H12.5C12.776 11 13 11.224 13 11.5Z" fill="white"/>
</svg>
